PathFileType	4	(X/Y/Z)	6_coords_data.trc
DataRate	CameraRate	NumFrames	NumMarkers	Units	OrigDataRate	OrigDataStartFrame	OrigNumFrames
30.0	30.0	7	21	m	30.0	1	66
Frame#	Time	THUMB_TIP	THUMB_IP	THUMB_MCP	THUMB_CMC	INDEX_TIP	INDEX_DIP	INDEX_PIP	INDEX_MCP	MIDDLE_TIP	MIDDLE_DIP	MIDDLE_PIP	MIDDLE_MCP	RING_TIP	RING_DIP	RING_PIP	RING_MCP	PINKY_TIP	PINKY_DIP	PINKY_PIP	PINKY_MCP	WRIST
X1	Y1	Z1	X2	Y2	Z2	X3	Y3	Z3	X4	Y4	Z4	X5	Y5	Z5	X6	Y6	Z6	X7	Y7	Z7	X8	Y8	Z8	X9	Y9	Z9	X10	Y10	Z10	X11	Y11	Z11	X12	Y12	Z12	X13	Y13	Z13	X14	Y14	Z14	X15	Y15	Z15	X16	Y16	Z16	X17	Y17	Z17	X18	Y18	Z18	X19	Y19	Z19	X20	Y20	Z20	X21	Y21	Z21
0	-2.749317978547796e-18	0.5361772116951258	-0.008963379262672988	-0.09922736899102375	0.5208713757652859	-0.00705859985013868	-0.11625978519890243	0.4901275321309019	-0.011741819043397883	-0.11756498118894908	0.4767646429254834	-0.023630490845607643	-0.07669955968294903	0.4966543879364138	-0.007903579872327704	-0.10940288949972649	0.5121737957324384	-0.0017220031388369694	-0.11639832306374928	0.5259204195676396	0.01832399779660976	-0.12281689086580215	0.49518270862929015	0.037836687996668394	-0.10072426446179539	0.5260433924602257	-0.008036231302491648	-0.1165123122000375	0.5145942828878587	-0.008687957496986698	-0.10249471101555013	0.5358315753643922	0.011199413712332462	-0.10419159776749137	0.5086628259987852	0.03765190264234464	-0.08056380040259895	0.5287320915572842	0.00427101849763889	-0.08518655858480238	0.516687453015819	-0.009142628069592651	-0.08521427455236343	0.5389993474600056	0.001166491303108863	-0.08922443702673725	0.5222033530480626	0.028567876364015254	-0.06469324254995065	0.5121774564259348	-0.01591012526136848	-0.06648049279841589	0.5240202482431389	-0.022012455401532405	-0.07722804362801486	0.5433603053913992	-0.013868005802289085	-0.07789298665370775	0.5294591048897018	0.007708113858912791	-0.05255307473639603	0.462283081001861	-0.023011742144276925	-0.051989820119430985
1	0.03333333333333339	0.5356788411301101	-0.008805713451002561	-0.09921233720886645	0.5201735960478459	-0.006751471674271592	-0.11604585929016774	0.489389273855549	-0.011022783408752734	-0.11774920987878143	0.476853565616589	-0.023023243295422713	-0.07665498909950283	0.4954877649780831	-0.004860671728474153	-0.10871293781016181	0.511421518204594	-0.0011065230173065155	-0.11646031643593548	0.5254221540849688	0.018833868364999562	-0.12265489628170517	0.494712813009617	0.03828875747543925	-0.1004720255383093	0.5171062312649287	-0.012320047238316478	-0.11939028333663429	0.5136790154707797	-0.008379802246950008	-0.10204875337793842	0.5350153773151328	0.011364527103620792	-0.10412977998589523	0.5081121236173058	0.03809411969622556	-0.08051004795304342	0.5284401920322583	0.004078302023989178	-0.08529850352997434	0.5163774147249244	-0.009318863907941677	-0.08522536922896341	0.5386433058259951	0.001123045465511674	-0.0891466701753146	0.5219619048673632	0.028806981989336178	-0.06485569747757736	0.510619025740541	-0.01719392862544744	-0.06698449291003132	0.5231157516635091	-0.02246012079916715	-0.07742954251238683	0.542357668383171	-0.014093197601582785	-0.07817469763671749	0.529249266629887	0.00815189432650898	-0.05299118835811907	0.462283081001861	-0.023011742144276925	-0.051989820119430985
2	0.06666666666666676	0.5352974703046784	-0.008709560223753243	-0.09918258253382059	0.519637366992613	-0.00653281576320397	-0.11585660267921152	0.4888291590315159	-0.010484283648567128	-0.11787160237567393	0.4769123396181447	-0.022561528654020724	-0.07661606252770503	0.49481896500484246	-0.0023963857682094414	-0.10827064929175263	0.5108516956888026	-0.0006527770344768591	-0.11651148513523674	0.5250485356322908	0.01920080099700905	-0.12253601897335811	0.49436477509677856	0.038618455875012336	-0.10028522994379555	0.5032630000720916	-0.01645947163115047	-0.11451932335012333	0.5129917947440276	-0.00815130076552828	-0.10170039784527182	0.5344063532147671	0.011473716995948124	-0.10408470348109417	0.50770284983769	0.03841397894363352	-0.08047764702374383	0.5282470467726695	0.003893053420814807	-0.08555459578341204	0.5161414158926921	-0.009461730829872672	-0.0852329770412221	0.5383753404247748	0.0010731586633442314	-0.08908637583545016	0.5217848056146879	0.028977745080799755	-0.06498639563657749	0.5094058651595131	-0.01823916004268522	-0.06738111099761142	0.5223919172436833	-0.022817422441161694	-0.07754978665759382	0.5415607064097356	-0.014290321467957723	-0.07836101406111107	0.5290912729434892	0.00847699802491586	-0.05332013062740859	0.4622830810018609	-0.023011742144276925	-0.05198982011943098
3	0.10000000000000014	0.5350243366112379	-0.008659274099546144	-0.09915497367256645	0.5192479459751003	-0.006384566485817977	-0.11570584083317273	0.48842677104171506	-0.010103509780367115	-0.11795186765794681	0.4769475856274298	-0.022229853803754085	-0.07658678476366347	0.4944759771079298	-0.0005912017967569794	-0.10801351246571364	0.5104466592704578	-0.0003424382817024396	-0.11655022307209409	0.5247868366111585	0.01944393422739954	-0.12245518791265902	0.4941256719220427	0.038842603546830334	-0.100156741721449	0.49791384754318513	-0.016463581123663418	-0.10802751949296108	0.5125069477544094	-0.007994882130385572	-0.10144553167875019	0.5339810433395396	0.011536229515981877	-0.10405483171091039	0.5074190833654112	0.03862947806702499	-0.08046317881663012	0.5282410496594236	0.0035568013223427064	-0.08669194093703511	0.5159713550622229	-0.009571125822585125	-0.08523862632247681	0.538186406674049	0.0010211490911841148	-0.08904325153858383	0.5216640538715416	0.0290902161917852	-0.0650878729364529	0.5085204122021946	-0.019020945983897142	-0.06766948246139223	0.5218481460334718	-0.02308120243874412	-0.07761361784077532	0.5409681941459149	-0.014450421816352588	-0.07847698625924614	0.5289797703195024	0.008701799874460847	-0.05355439056903479	0.4622830810018609	-0.023011742144276925	-0.051989820119430985
4	0.13333333333333353	0.5348482709769736	-0.008642366889661024	-0.09913786487251629	0.518988646329408	-0.006291859485915152	-0.11559834545429962	0.4881613770654698	-0.009857901861551999	-0.11800309315495555	0.47696468491649047	-0.022011619677964833	-0.07656867234133738	0.49432052026436446	0.000589731959212525	-0.10787438090752655	0.5101864881696122	-0.0001561579817772607	-0.11657580094253131	0.5246232383754837	0.019581997159615838	-0.12240635049703838	0.49398156064290366	0.03897746827829163	-0.10007835506938476	0.49641481643157503	-0.015968811150048334	-0.10499379130726634	0.5121977320465473	-0.00790178586889867	-0.10127590510621638	0.5337149907835124	0.011560726995609949	-0.10403773773064123	0.5072441330271554	0.03875741642021846	-0.0804627150374578	0.5047239500979231	-0.023352996380156088	-0.08887627745166661	0.5158591338366528	-0.009648736603759533	-0.08524296669069836	0.5380668990126733	0.0009702205966588551	-0.08901561733214639	0.5215917069735094	0.029153789218619774	-0.06516241333344008	0.5079301195465259	-0.019542117117710922	-0.06785430419864913	0.5214748604273451	-0.0232559700754863	-0.07763935865324909	0.5405684473404266	-0.014570752516687269	-0.07854155250654729	0.5289088878646443	0.008842583551532224	-0.0537070237615255	0.4622830810018609	-0.023011742144276925	-0.051989820119430985
5	0.1666666666666669	0.5347562295353697	-0.008648905900650483	-0.09913344861041459	0.5188412924725254	-0.006242440625176204	-0.11553234196221254	0.4880121914782213	-0.009725277565497126	-0.1180336173828996	0.47696804636912926	-0.021889644277418685	-0.0765613972674149	0.4942658749589298	0.0012340774267298737	-0.10780406343742864	0.5100496669947046	-7.375037822210384e-05	-0.11658822505957603	0.5245431665185771	0.0196333927879484	-0.12238277532509008	0.49391779838079874	0.03903888700082192	-0.10004111659571918	0.4958978391202511	-0.015682177881235604	-0.10370614101126278	0.5120368023148447	-0.007862142531080862	-0.10118009387673044	0.5335830935799968	0.011555447584948864	-0.10403037049542768	0.5071608139952859	0.03881371280037915	-0.0804719741155244	0.5040540115990411	-0.023296716008906038	-0.08671998107749543	0.5157966396718919	-0.009697527155490993	-0.08524595649430512	0.5380067805845321	0.0009227995010542278	-0.08900072430988842	0.521559877522804	0.02917739005690323	-0.06521210673342022	0.5075948756657562	-0.019825950911304346	-0.06794598368114237	0.5212552933974413	-0.023351281002293556	-0.07763954005356963	0.5403414429861512	-0.01465251643667198	-0.07856819925332013	0.5288724316456995	0.008914150220785455	-0.05379003441956233	0.462283081001861	-0.023011742144276925	-0.051989820119430985
6	0.20000000000000023	0.5347338035305779	-0.008670811156280767	-0.09913976424363935	0.5187866468032293	-0.006225962292922604	-0.11550163780227315	0.4879584722107627	-0.009683805066866169	-0.11804859179618167	0.4769613855844146	-0.021846461750561152	-0.07656336709958432	0.49426573853060074	0.0014434362160459235	-0.10777328272364997	0.5100136282430903	-7.441144350717188e-05	-0.11658804920301055	0.5245315625237529	0.01961629567102985	-0.12237730395227601	0.49391929919392663	0.03904239779109597	-0.10003559443294553	0.49575844680184733	-0.015584827005769464	-0.10331990171021162	0.5119965044319398	-0.007865180625519885	-0.10114446056743248	0.5335598592385201	0.011528352905193162	-0.10402927194404663	0.5071516504389915	0.038813694280919964	-0.0804864476654995	0.5039810212601428	-0.02329769629573597	-0.08649869589212247	0.5157757209789975	-0.00972130462557197	-0.08524703788757211	0.5379957046146672	0.0008808056858677915	-0.08899504578172526	0.521560723952353	0.02916963317015342	-0.06523889954135861	0.5074713539217165	-0.019909112095516157	-0.06795926852457058	0.5211674612174134	-0.023379762344610144	-0.07762214758793548	0.5402611550075558	-0.014699223078265433	-0.07856613619683497	0.5288640100753748	0.008930310061336155	-0.05381469781440283	0.4622830810018609	-0.023011742144276925	-0.051989820119430985
